<mxfile host="" modified="2020-05-24T15:21:41.060Z" agent="5.0 (X11; Linux x86_64) AppleWebKit/537.36 (KHTML, like Gecko) Code/1.45.0 Chrome/78.0.3904.130 Electron/7.2.4 Safari/537.36" version="13.1.3" etag="lrwgP8mNOWNbAz78NI_h" pages="2">
            <diagram id="diagramid" name="Diagram">
              <mxGraphModel><root><mxCell id="0"/><mxCell id="1" parent="0"/><mxCell id="2" value="ServerlessDeploymentBucket" style="outlineConnect=0;fontColor=#B3B3B3;gradientColor=#60A337;gradientDirection=north;fillColor=#277116;strokeColor=#ffffff;dashed=0;verticalLabelPosition=bottom;verticalAlign=top;align=center;html=1;fontSize=12;fontStyle=0;aspect=fixed;shape=mxgraph.aws4.resourceIcon;resIcon=mxgraph.aws4.s3;" vertex="1" parent="1"><mxGeometry x="750" y="575" width="50" height="50" as="geometry"/></mxCell><mxCell id="3" value="ServerlessDeploymentBucketPolicy" style="outlineConnect=0;fontColor=#B3B3B3;gradientColor=#60A337;gradientDirection=north;fillColor=#277116;strokeColor=#ffffff;dashed=0;verticalLabelPosition=bottom;verticalAlign=top;align=center;html=1;fontSize=12;fontStyle=0;aspect=fixed;shape=mxgraph.aws4.resourceIcon;resIcon=mxgraph.aws4.s3;" vertex="1" parent="1"><mxGeometry x="500" y="675" width="50" height="50" as="geometry"/></mxCell><mxCell id="4" value="AuthorizerAddLogGroup" style="outlineConnect=0;fontColor=#B3B3B3;gradientColor=#F34482;gradientDirection=north;fillColor=#BC1356;strokeColor=#ffffff;dashed=0;verticalLabelPosition=bottom;verticalAlign=top;align=center;html=1;fontSize=12;fontStyle=0;aspect=fixed;shape=mxgraph.aws4.resourceIcon;resIcon=mxgraph.aws4.cloudwatch;" vertex="1" parent="1"><mxGeometry y="1300" width="50" height="50" as="geometry"/></mxCell><mxCell id="5" value="AuthorizerGetLogGroup" style="outlineConnect=0;fontColor=#B3B3B3;gradientColor=#F34482;gradientDirection=north;fillColor=#BC1356;strokeColor=#ffffff;dashed=0;verticalLabelPosition=bottom;verticalAlign=top;align=center;html=1;fontSize=12;fontStyle=0;aspect=fixed;shape=mxgraph.aws4.resourceIcon;resIcon=mxgraph.aws4.cloudwatch;" vertex="1" parent="1"><mxGeometry y="1450" width="50" height="50" as="geometry"/></mxCell><mxCell id="6" value="AddEventLogGroup" style="outlineConnect=0;fontColor=#B3B3B3;gradientColor=#F34482;gradientDirection=north;fillColor=#BC1356;strokeColor=#ffffff;dashed=0;verticalLabelPosition=bottom;verticalAlign=top;align=center;html=1;fontSize=12;fontStyle=0;aspect=fixed;shape=mxgraph.aws4.resourceIcon;resIcon=mxgraph.aws4.cloudwatch;" vertex="1" parent="1"><mxGeometry y="1600" width="50" height="50" as="geometry"/></mxCell><mxCell id="7" value="GetMetricsLogGroup" style="outlineConnect=0;fontColor=#B3B3B3;gradientColor=#F34482;gradientDirection=north;fillColor=#BC1356;strokeColor=#ffffff;dashed=0;verticalLabelPosition=bottom;verticalAlign=top;align=center;html=1;fontSize=12;fontStyle=0;aspect=fixed;shape=mxgraph.aws4.resourceIcon;resIcon=mxgraph.aws4.cloudwatch;" vertex="1" parent="1"><mxGeometry y="1750" width="50" height="50" as="geometry"/></mxCell><mxCell id="8" value="GetLastDeploymentLogGroup" style="outlineConnect=0;fontColor=#B3B3B3;gradientColor=#F34482;gradientDirection=north;fillColor=#BC1356;strokeColor=#ffffff;dashed=0;verticalLabelPosition=bottom;verticalAlign=top;align=center;html=1;fontSize=12;fontStyle=0;aspect=fixed;shape=mxgraph.aws4.resourceIcon;resIcon=mxgraph.aws4.cloudwatch;" vertex="1" parent="1"><mxGeometry y="1900" width="50" height="50" as="geometry"/></mxCell><mxCell id="9" value="IamRoleLambdaExecution" style="outlineConnect=0;fontColor=#B3B3B3;gradientColor=#F54749;gradientDirection=north;fillColor=#C7131F;strokeColor=#ffffff;dashed=0;verticalLabelPosition=bottom;verticalAlign=top;align=center;html=1;fontSize=12;fontStyle=0;aspect=fixed;shape=mxgraph.aws4.resourceIcon;resIcon=mxgraph.aws4.role;" vertex="1" parent="1"><mxGeometry x="750" y="368.75" width="50" height="50" as="geometry"/></mxCell><mxCell id="10" value="AuthorizerAddLambdaFunction" style="outlineConnect=0;fontColor=#B3B3B3;gradientColor=#F78E04;gradientDirection=north;fillColor=#D05C17;strokeColor=#ffffff;dashed=0;verticalLabelPosition=bottom;verticalAlign=top;align=center;html=1;fontSize=12;fontStyle=0;aspect=fixed;shape=mxgraph.aws4.resourceIcon;resIcon=mxgraph.aws4.lambda;" vertex="1" parent="1"><mxGeometry x="500" y="260.9375" width="50" height="50" as="geometry"/></mxCell><mxCell id="11" value="AuthorizerGetLambdaFunction" style="outlineConnect=0;fontColor=#B3B3B3;gradientColor=#F78E04;gradientDirection=north;fillColor=#D05C17;strokeColor=#ffffff;dashed=0;verticalLabelPosition=bottom;verticalAlign=top;align=center;html=1;fontSize=12;fontStyle=0;aspect=fixed;shape=mxgraph.aws4.resourceIcon;resIcon=mxgraph.aws4.lambda;" vertex="1" parent="1"><mxGeometry x="500" y="475" width="50" height="50" as="geometry"/></mxCell><mxCell id="12" value="AddEventLambdaFunction" style="outlineConnect=0;fontColor=#B3B3B3;gradientColor=#F78E04;gradientDirection=north;fillColor=#D05C17;strokeColor=#ffffff;dashed=0;verticalLabelPosition=bottom;verticalAlign=top;align=center;html=1;fontSize=12;fontStyle=0;aspect=fixed;shape=mxgraph.aws4.resourceIcon;resIcon=mxgraph.aws4.lambda;" vertex="1" parent="1"><mxGeometry x="500" y="375" width="50" height="50" as="geometry"/></mxCell><mxCell id="13" value="GetMetricsLambdaFunction" style="outlineConnect=0;fontColor=#B3B3B3;gradientColor=#F78E04;gradientDirection=north;fillColor=#D05C17;strokeColor=#ffffff;dashed=0;verticalLabelPosition=bottom;verticalAlign=top;align=center;html=1;fontSize=12;fontStyle=0;aspect=fixed;shape=mxgraph.aws4.resourceIcon;resIcon=mxgraph.aws4.lambda;" vertex="1" parent="1"><mxGeometry x="500" y="775" width="50" height="50" as="geometry"/></mxCell><mxCell id="14" value="GetLastDeploymentLambdaFunction" style="outlineConnect=0;fontColor=#B3B3B3;gradientColor=#F78E04;gradientDirection=north;fillColor=#D05C17;strokeColor=#ffffff;dashed=0;verticalLabelPosition=bottom;verticalAlign=top;align=center;html=1;fontSize=12;fontStyle=0;aspect=fixed;shape=mxgraph.aws4.resourceIcon;resIcon=mxgraph.aws4.lambda;" vertex="1" parent="1"><mxGeometry x="500" y="924.21875" width="50" height="50" as="geometry"/></mxCell><mxCell id="15" value="HttpApi" style="outlineConnect=0;fontColor=#B3B3B3;gradientColor=#945DF2;gradientDirection=north;fillColor=#5A30B5;strokeColor=#ffffff;dashed=0;verticalLabelPosition=bottom;verticalAlign=top;align=center;html=1;fontSize=12;fontStyle=0;aspect=fixed;shape=mxgraph.aws4.resourceIcon;resIcon=mxgraph.aws4.api_gateway;" vertex="1" parent="1"><mxGeometry x="500" y="575" width="50" height="50" as="geometry"/></mxCell><mxCell id="16" value="HttpApiStage" style="outlineConnect=0;fontColor=#B3B3B3;gradientColor=#945DF2;gradientDirection=north;fillColor=#5A30B5;strokeColor=#ffffff;dashed=0;verticalLabelPosition=bottom;verticalAlign=top;align=center;html=1;fontSize=12;fontStyle=0;aspect=fixed;shape=mxgraph.aws4.resourceIcon;resIcon=mxgraph.aws4.api_gateway;" vertex="1" parent="1"><mxGeometry x="250" y="700" width="50" height="50" as="geometry"/></mxCell><mxCell id="17" value="AuthorizerAddLambdaAuthorizerPermissionHttpApi" style="outlineConnect=0;fontColor=#B3B3B3;gradientColor=#F54749;gradientDirection=north;fillColor=#C7131F;strokeColor=#ffffff;dashed=0;verticalLabelPosition=bottom;verticalAlign=top;align=center;html=1;fontSize=12;fontStyle=0;aspect=fixed;shape=mxgraph.aws4.resourceIcon;resIcon=mxgraph.aws4.policy;" vertex="1" parent="1"><mxGeometry x="250" y="100" width="50" height="50" as="geometry"/></mxCell><mxCell id="18" value="HttpApiAuthorizerAuthorizerAdd" style="outlineConnect=0;fontColor=#B3B3B3;gradientColor=#945DF2;gradientDirection=north;fillColor=#5A30B5;strokeColor=#ffffff;dashed=0;verticalLabelPosition=bottom;verticalAlign=top;align=center;html=1;fontSize=12;fontStyle=0;aspect=fixed;shape=mxgraph.aws4.resourceIcon;resIcon=mxgraph.aws4.api_gateway;" vertex="1" parent="1"><mxGeometry x="250" width="50" height="50" as="geometry"/></mxCell><mxCell id="19" value="AuthorizerGetLambdaAuthorizerPermissionHttpApi" style="outlineConnect=0;fontColor=#B3B3B3;gradientColor=#F54749;gradientDirection=north;fillColor=#C7131F;strokeColor=#ffffff;dashed=0;verticalLabelPosition=bottom;verticalAlign=top;align=center;html=1;fontSize=12;fontStyle=0;aspect=fixed;shape=mxgraph.aws4.resourceIcon;resIcon=mxgraph.aws4.policy;" vertex="1" parent="1"><mxGeometry x="250" y="400" width="50" height="50" as="geometry"/></mxCell><mxCell id="20" value="HttpApiAuthorizerAuthorizerGet" style="outlineConnect=0;fontColor=#B3B3B3;gradientColor=#945DF2;gradientDirection=north;fillColor=#5A30B5;strokeColor=#ffffff;dashed=0;verticalLabelPosition=bottom;verticalAlign=top;align=center;html=1;fontSize=12;fontStyle=0;aspect=fixed;shape=mxgraph.aws4.resourceIcon;resIcon=mxgraph.aws4.api_gateway;" vertex="1" parent="1"><mxGeometry x="250" y="600" width="50" height="50" as="geometry"/></mxCell><mxCell id="21" value="AddEventLambdaPermissionHttpApi" style="outlineConnect=0;fontColor=#B3B3B3;gradientColor=#F54749;gradientDirection=north;fillColor=#C7131F;strokeColor=#ffffff;dashed=0;verticalLabelPosition=bottom;verticalAlign=top;align=center;html=1;fontSize=12;fontStyle=0;aspect=fixed;shape=mxgraph.aws4.resourceIcon;resIcon=mxgraph.aws4.policy;" vertex="1" parent="1"><mxGeometry x="250" y="300" width="50" height="50" as="geometry"/></mxCell><mxCell id="22" value="HttpApiIntegrationAddEvent" style="outlineConnect=0;fontColor=#B3B3B3;gradientColor=#945DF2;gradientDirection=north;fillColor=#5A30B5;strokeColor=#ffffff;dashed=0;verticalLabelPosition=bottom;verticalAlign=top;align=center;html=1;fontSize=12;fontStyle=0;aspect=fixed;shape=mxgraph.aws4.resourceIcon;resIcon=mxgraph.aws4.api_gateway;" vertex="1" parent="1"><mxGeometry x="250" y="200" width="50" height="50" as="geometry"/></mxCell><mxCell id="23" value="HttpApiRoutePostEvent" style="outlineConnect=0;fontColor=#B3B3B3;gradientColor=#945DF2;gradientDirection=north;fillColor=#5A30B5;strokeColor=#ffffff;dashed=0;verticalLabelPosition=bottom;verticalAlign=top;align=center;html=1;fontSize=12;fontStyle=0;aspect=fixed;shape=mxgraph.aws4.resourceIcon;resIcon=mxgraph.aws4.api_gateway;" vertex="1" parent="1"><mxGeometry y="200" width="50" height="50" as="geometry"/></mxCell><mxCell id="24" value="GetMetricsLambdaPermissionHttpApi" style="outlineConnect=0;fontColor=#B3B3B3;gradientColor=#F54749;gradientDirection=north;fillColor=#C7131F;strokeColor=#ffffff;dashed=0;verticalLabelPosition=bottom;verticalAlign=top;align=center;html=1;fontSize=12;fontStyle=0;aspect=fixed;shape=mxgraph.aws4.resourceIcon;resIcon=mxgraph.aws4.policy;" vertex="1" parent="1"><mxGeometry x="250" y="950" width="50" height="50" as="geometry"/></mxCell><mxCell id="25" value="HttpApiIntegrationGetMetrics" style="outlineConnect=0;fontColor=#B3B3B3;gradientColor=#945DF2;gradientDirection=north;fillColor=#5A30B5;strokeColor=#ffffff;dashed=0;verticalLabelPosition=bottom;verticalAlign=top;align=center;html=1;fontSize=12;fontStyle=0;aspect=fixed;shape=mxgraph.aws4.resourceIcon;resIcon=mxgraph.aws4.api_gateway;" vertex="1" parent="1"><mxGeometry x="250" y="800" width="50" height="50" as="geometry"/></mxCell><mxCell id="26" value="HttpApiRouteGetMetrics" style="outlineConnect=0;fontColor=#B3B3B3;gradientColor=#945DF2;gradientDirection=north;fillColor=#5A30B5;strokeColor=#ffffff;dashed=0;verticalLabelPosition=bottom;verticalAlign=top;align=center;html=1;fontSize=12;fontStyle=0;aspect=fixed;shape=mxgraph.aws4.resourceIcon;resIcon=mxgraph.aws4.api_gateway;" vertex="1" parent="1"><mxGeometry y="575" width="50" height="50" as="geometry"/></mxCell><mxCell id="27" value="GetLastDeploymentLambdaPermissionHttpApi" style="outlineConnect=0;fontColor=#B3B3B3;gradientColor=#F54749;gradientDirection=north;fillColor=#C7131F;strokeColor=#ffffff;dashed=0;verticalLabelPosition=bottom;verticalAlign=top;align=center;html=1;fontSize=12;fontStyle=0;aspect=fixed;shape=mxgraph.aws4.resourceIcon;resIcon=mxgraph.aws4.policy;" vertex="1" parent="1"><mxGeometry x="250" y="1150" width="50" height="50" as="geometry"/></mxCell><mxCell id="28" value="HttpApiIntegrationGetLastDeployment" style="outlineConnect=0;fontColor=#B3B3B3;gradientColor=#945DF2;gradientDirection=north;fillColor=#5A30B5;strokeColor=#ffffff;dashed=0;verticalLabelPosition=bottom;verticalAlign=top;align=center;html=1;fontSize=12;fontStyle=0;aspect=fixed;shape=mxgraph.aws4.resourceIcon;resIcon=mxgraph.aws4.api_gateway;" vertex="1" parent="1"><mxGeometry x="250" y="1050" width="50" height="50" as="geometry"/></mxCell><mxCell id="29" value="HttpApiRouteGetLastdeployment" style="outlineConnect=0;fontColor=#B3B3B3;gradientColor=#945DF2;gradientDirection=north;fillColor=#5A30B5;strokeColor=#ffffff;dashed=0;verticalLabelPosition=bottom;verticalAlign=top;align=center;html=1;fontSize=12;fontStyle=0;aspect=fixed;shape=mxgraph.aws4.resourceIcon;resIcon=mxgraph.aws4.api_gateway;" vertex="1" parent="1"><mxGeometry y="875" width="50" height="50" as="geometry"/></mxCell><mxCell id="30" value="AddEventIamRoleLambdaExecution" style="outlineConnect=0;fontColor=#B3B3B3;gradientColor=#F54749;gradientDirection=north;fillColor=#C7131F;strokeColor=#ffffff;dashed=0;verticalLabelPosition=bottom;verticalAlign=top;align=center;html=1;fontSize=12;fontStyle=0;aspect=fixed;shape=mxgraph.aws4.resourceIcon;resIcon=mxgraph.aws4.role;" vertex="1" parent="1"><mxGeometry x="750" y="475" width="50" height="50" as="geometry"/></mxCell><mxCell id="31" value="GetMetricsIamRoleLambdaExecution" style="outlineConnect=0;fontColor=#B3B3B3;gradientColor=#F54749;gradientDirection=north;fillColor=#C7131F;strokeColor=#ffffff;dashed=0;verticalLabelPosition=bottom;verticalAlign=top;align=center;html=1;fontSize=12;fontStyle=0;aspect=fixed;shape=mxgraph.aws4.resourceIcon;resIcon=mxgraph.aws4.role;" vertex="1" parent="1"><mxGeometry x="750" y="675" width="50" height="50" as="geometry"/></mxCell><mxCell id="32" value="GetLastDeploymentIamRoleLambdaExecution" style="outlineConnect=0;fontColor=#B3B3B3;gradientColor=#F54749;gradientDirection=north;fillColor=#C7131F;strokeColor=#ffffff;dashed=0;verticalLabelPosition=bottom;verticalAlign=top;align=center;html=1;fontSize=12;fontStyle=0;aspect=fixed;shape=mxgraph.aws4.resourceIcon;resIcon=mxgraph.aws4.role;" vertex="1" parent="1"><mxGeometry x="750" y="924.21875" width="50" height="50" as="geometry"/></mxCell><mxCell id="33" value="DorametrixTable" style="outlineConnect=0;fontColor=#B3B3B3;gradientColor=#4D72F3;gradientDirection=north;fillColor=#3334B9;strokeColor=#ffffff;dashed=0;verticalLabelPosition=bottom;verticalAlign=top;align=center;html=1;fontSize=12;fontStyle=0;aspect=fixed;shape=mxgraph.aws4.resourceIcon;resIcon=mxgraph.aws4.dynamodb;" vertex="1" parent="1"><mxGeometry y="2050" width="50" height="50" as="geometry"/></mxCell><mxCell id="ServerlessDeploymentBucket|ServerlessDeploymentBucketPolicy" value="Bucket&#xA;Resource" style="edgeStyle=orthogonalEdgeStyle;rounded=1;orthogonalLoop=1;jettySize=auto;html=1;labelBackgroundColor=none;fontColor=#EA6B66;noEdgeStyle=1;orthogonal=1;" edge="1" parent="1" source="3" target="2"><mxGeometry relative="1" as="geometry"><Array as="points"><mxPoint x="562" y="700"/><mxPoint x="734" y="603.3333333333333"/></Array></mxGeometry></mxCell><mxCell id="ServerlessDeploymentBucket|AuthorizerAddLambdaFunction" value="S3Bucket" style="edgeStyle=orthogonalEdgeStyle;rounded=1;orthogonalLoop=1;jettySize=auto;html=1;labelBackgroundColor=none;fontColor=#EA6B66;noEdgeStyle=1;orthogonal=1;" edge="1" parent="1" source="10" target="2"><mxGeometry relative="1" as="geometry"><Array as="points"><mxPoint x="562" y="295.9375"/><mxPoint x="738" y="583.3333333333334"/></Array></mxGeometry></mxCell><mxCell id="IamRoleLambdaExecution|AuthorizerAddLambdaFunction" value="Role" style="edgeStyle=orthogonalEdgeStyle;rounded=1;orthogonalLoop=1;jettySize=auto;html=1;labelBackgroundColor=none;fontColor=#EA6B66;noEdgeStyle=1;orthogonal=1;" edge="1" parent="1" source="10" target="9"><mxGeometry relative="1" as="geometry"><Array as="points"><mxPoint x="562" y="275.9375"/><mxPoint x="738" y="383.75"/></Array></mxGeometry></mxCell><mxCell id="ServerlessDeploymentBucket|AuthorizerGetLambdaFunction" value="S3Bucket" style="edgeStyle=orthogonalEdgeStyle;rounded=1;orthogonalLoop=1;jettySize=auto;html=1;labelBackgroundColor=none;fontColor=#EA6B66;noEdgeStyle=1;orthogonal=1;" edge="1" parent="1" source="11" target="2"><mxGeometry relative="1" as="geometry"><Array as="points"><mxPoint x="562" y="510"/><mxPoint x="734" y="596.6666666666666"/></Array></mxGeometry></mxCell><mxCell id="IamRoleLambdaExecution|AuthorizerGetLambdaFunction" value="Role" style="edgeStyle=orthogonalEdgeStyle;rounded=1;orthogonalLoop=1;jettySize=auto;html=1;labelBackgroundColor=none;fontColor=#EA6B66;noEdgeStyle=1;orthogonal=1;" edge="1" parent="1" source="11" target="9"><mxGeometry relative="1" as="geometry"><Array as="points"><mxPoint x="562" y="490"/><mxPoint x="738" y="403.75"/></Array></mxGeometry></mxCell><mxCell id="ServerlessDeploymentBucket|AddEventLambdaFunction" value="S3Bucket" style="edgeStyle=orthogonalEdgeStyle;rounded=1;orthogonalLoop=1;jettySize=auto;html=1;labelBackgroundColor=none;fontColor=#EA6B66;noEdgeStyle=1;orthogonal=1;" edge="1" parent="1" source="12" target="2"><mxGeometry relative="1" as="geometry"><Array as="points"><mxPoint x="562" y="410"/><mxPoint x="736" y="590"/></Array></mxGeometry></mxCell><mxCell id="AddEventIamRoleLambdaExecution|AddEventLambdaFunction" value="Role" style="edgeStyle=orthogonalEdgeStyle;rounded=1;orthogonalLoop=1;jettySize=auto;html=1;labelBackgroundColor=none;fontColor=#EA6B66;noEdgeStyle=1;orthogonal=1;" edge="1" parent="1" source="12" target="30"><mxGeometry relative="1" as="geometry"><Array as="points"><mxPoint x="562" y="390"/><mxPoint x="738" y="500"/></Array></mxGeometry></mxCell><mxCell id="ServerlessDeploymentBucket|GetMetricsLambdaFunction" value="S3Bucket" style="edgeStyle=orthogonalEdgeStyle;rounded=1;orthogonalLoop=1;jettySize=auto;html=1;labelBackgroundColor=none;fontColor=#EA6B66;noEdgeStyle=1;orthogonal=1;" edge="1" parent="1" source="13" target="2"><mxGeometry relative="1" as="geometry"><Array as="points"><mxPoint x="562" y="790"/><mxPoint x="736" y="609.9999999999999"/></Array></mxGeometry></mxCell><mxCell id="GetMetricsIamRoleLambdaExecution|GetMetricsLambdaFunction" value="Role" style="edgeStyle=orthogonalEdgeStyle;rounded=1;orthogonalLoop=1;jettySize=auto;html=1;labelBackgroundColor=none;fontColor=#EA6B66;noEdgeStyle=1;orthogonal=1;" edge="1" parent="1" source="13" target="31"><mxGeometry relative="1" as="geometry"><Array as="points"><mxPoint x="562" y="810"/><mxPoint x="738" y="700"/></Array></mxGeometry></mxCell><mxCell id="ServerlessDeploymentBucket|GetLastDeploymentLambdaFunction" value="S3Bucket" style="edgeStyle=orthogonalEdgeStyle;rounded=1;orthogonalLoop=1;jettySize=auto;html=1;labelBackgroundColor=none;fontColor=#EA6B66;noEdgeStyle=1;orthogonal=1;" edge="1" parent="1" source="14" target="2"><mxGeometry relative="1" as="geometry"><Array as="points"><mxPoint x="562" y="939.21875"/><mxPoint x="738" y="616.6666666666665"/></Array></mxGeometry></mxCell><mxCell id="GetLastDeploymentIamRoleLambdaExecution|GetLastDeploymentLambdaFunction" value="Role" style="edgeStyle=orthogonalEdgeStyle;rounded=1;orthogonalLoop=1;jettySize=auto;html=1;labelBackgroundColor=none;fontColor=#EA6B66;noEdgeStyle=1;orthogonal=1;" edge="1" parent="1" source="14" target="32"><mxGeometry relative="1" as="geometry"><Array as="points"><mxPoint x="562" y="959.21875"/><mxPoint x="738" y="949.21875"/></Array></mxGeometry></mxCell><mxCell id="HttpApi|HttpApiStage" value="ApiId" style="edgeStyle=orthogonalEdgeStyle;rounded=1;orthogonalLoop=1;jettySize=auto;html=1;labelBackgroundColor=none;fontColor=#EA6B66;noEdgeStyle=1;orthogonal=1;" edge="1" parent="1" source="16" target="15"><mxGeometry relative="1" as="geometry"><Array as="points"><mxPoint x="312" y="725"/><mxPoint x="478" y="605.3571428571428"/></Array></mxGeometry></mxCell><mxCell id="HttpApi|AuthorizerAddLambdaAuthorizerPermissionHttpApi" value="SourceArn" style="edgeStyle=orthogonalEdgeStyle;rounded=1;orthogonalLoop=1;jettySize=auto;html=1;labelBackgroundColor=none;fontColor=#EA6B66;noEdgeStyle=1;orthogonal=1;" edge="1" parent="1" source="17" target="15"><mxGeometry relative="1" as="geometry"><Array as="points"><mxPoint x="312" y="135"/><mxPoint x="486" y="580.3571428571429"/></Array></mxGeometry></mxCell><mxCell id="AuthorizerAddLambdaFunction|AuthorizerAddLambdaAuthorizerPermissionHttpApi" value="FunctionName" style="edgeStyle=orthogonalEdgeStyle;rounded=1;orthogonalLoop=1;jettySize=auto;html=1;labelBackgroundColor=none;fontColor=#EA6B66;noEdgeStyle=1;orthogonal=1;" edge="1" parent="1" source="17" target="10"><mxGeometry relative="1" as="geometry"><Array as="points"><mxPoint x="312" y="115"/><mxPoint x="488" y="295.9375"/></Array></mxGeometry></mxCell><mxCell id="HttpApi|HttpApiAuthorizerAuthorizerAdd" value="ApiId" style="edgeStyle=orthogonalEdgeStyle;rounded=1;orthogonalLoop=1;jettySize=auto;html=1;labelBackgroundColor=none;fontColor=#EA6B66;noEdgeStyle=1;orthogonal=1;" edge="1" parent="1" source="18" target="15"><mxGeometry relative="1" as="geometry"><Array as="points"><mxPoint x="312" y="35"/><mxPoint x="488" y="576.7857142857143"/></Array></mxGeometry></mxCell><mxCell id="AuthorizerAddLambdaFunction|HttpApiAuthorizerAuthorizerAdd" value="AuthorizerUri" style="edgeStyle=orthogonalEdgeStyle;rounded=1;orthogonalLoop=1;jettySize=auto;html=1;labelBackgroundColor=none;fontColor=#EA6B66;noEdgeStyle=1;orthogonal=1;" edge="1" parent="1" source="18" target="10"><mxGeometry relative="1" as="geometry"><Array as="points"><mxPoint x="312" y="15"/><mxPoint x="488" y="275.9375"/></Array></mxGeometry></mxCell><mxCell id="HttpApi|AuthorizerGetLambdaAuthorizerPermissionHttpApi" value="SourceArn" style="edgeStyle=orthogonalEdgeStyle;rounded=1;orthogonalLoop=1;jettySize=auto;html=1;labelBackgroundColor=none;fontColor=#EA6B66;noEdgeStyle=1;orthogonal=1;" edge="1" parent="1" source="19" target="15"><mxGeometry relative="1" as="geometry"><Array as="points"><mxPoint x="312" y="435"/><mxPoint x="480" y="591.0714285714286"/></Array></mxGeometry></mxCell><mxCell id="AuthorizerGetLambdaFunction|AuthorizerGetLambdaAuthorizerPermissionHttpApi" value="FunctionName" style="edgeStyle=orthogonalEdgeStyle;rounded=1;orthogonalLoop=1;jettySize=auto;html=1;labelBackgroundColor=none;fontColor=#EA6B66;noEdgeStyle=1;orthogonal=1;" edge="1" parent="1" source="19" target="11"><mxGeometry relative="1" as="geometry"><Array as="points"><mxPoint x="312" y="415"/><mxPoint x="488" y="490"/></Array></mxGeometry></mxCell><mxCell id="HttpApi|HttpApiAuthorizerAuthorizerGet" value="ApiId" style="edgeStyle=orthogonalEdgeStyle;rounded=1;orthogonalLoop=1;jettySize=auto;html=1;labelBackgroundColor=none;fontColor=#EA6B66;noEdgeStyle=1;orthogonal=1;" edge="1" parent="1" source="20" target="15"><mxGeometry relative="1" as="geometry"><Array as="points"><mxPoint x="312" y="635"/><mxPoint x="476" y="601.7857142857142"/></Array></mxGeometry></mxCell><mxCell id="AuthorizerGetLambdaFunction|HttpApiAuthorizerAuthorizerGet" value="AuthorizerUri" style="edgeStyle=orthogonalEdgeStyle;rounded=1;orthogonalLoop=1;jettySize=auto;html=1;labelBackgroundColor=none;fontColor=#EA6B66;noEdgeStyle=1;orthogonal=1;" edge="1" parent="1" source="20" target="11"><mxGeometry relative="1" as="geometry"><Array as="points"><mxPoint x="312" y="615"/><mxPoint x="488" y="510"/></Array></mxGeometry></mxCell><mxCell id="HttpApi|AddEventLambdaPermissionHttpApi" value="SourceArn" style="edgeStyle=orthogonalEdgeStyle;rounded=1;orthogonalLoop=1;jettySize=auto;html=1;labelBackgroundColor=none;fontColor=#EA6B66;noEdgeStyle=1;orthogonal=1;" edge="1" parent="1" source="21" target="15"><mxGeometry relative="1" as="geometry"><Array as="points"><mxPoint x="312" y="335"/><mxPoint x="482" y="587.5"/></Array></mxGeometry></mxCell><mxCell id="AddEventLambdaFunction|AddEventLambdaPermissionHttpApi" value="FunctionName" style="edgeStyle=orthogonalEdgeStyle;rounded=1;orthogonalLoop=1;jettySize=auto;html=1;labelBackgroundColor=none;fontColor=#EA6B66;noEdgeStyle=1;orthogonal=1;" edge="1" parent="1" source="21" target="12"><mxGeometry relative="1" as="geometry"><Array as="points"><mxPoint x="312" y="315"/><mxPoint x="488" y="410"/></Array></mxGeometry></mxCell><mxCell id="HttpApi|HttpApiIntegrationAddEvent" value="ApiId" style="edgeStyle=orthogonalEdgeStyle;rounded=1;orthogonalLoop=1;jettySize=auto;html=1;labelBackgroundColor=none;fontColor=#EA6B66;noEdgeStyle=1;orthogonal=1;" edge="1" parent="1" source="22" target="15"><mxGeometry relative="1" as="geometry"><Array as="points"><mxPoint x="312" y="235"/><mxPoint x="484" y="583.9285714285714"/></Array></mxGeometry></mxCell><mxCell id="AddEventLambdaFunction|HttpApiIntegrationAddEvent" value="IntegrationUri" style="edgeStyle=orthogonalEdgeStyle;rounded=1;orthogonalLoop=1;jettySize=auto;html=1;labelBackgroundColor=none;fontColor=#EA6B66;noEdgeStyle=1;orthogonal=1;" edge="1" parent="1" source="22" target="12"><mxGeometry relative="1" as="geometry"><Array as="points"><mxPoint x="312" y="215"/><mxPoint x="488" y="390"/></Array></mxGeometry></mxCell><mxCell id="HttpApi|HttpApiRoutePostEvent" value="ApiId" style="edgeStyle=orthogonalEdgeStyle;rounded=1;orthogonalLoop=1;jettySize=auto;html=1;labelBackgroundColor=none;fontColor=#EA6B66;noEdgeStyle=1;orthogonal=1;" edge="1" parent="1" source="23" target="15"><mxGeometry relative="1" as="geometry"><Array as="points"><mxPoint x="62" y="238.33333333333334"/><mxPoint x="150" y="500"/><mxPoint x="400" y="500"/><mxPoint x="478" y="594.6428571428571"/></Array></mxGeometry></mxCell><mxCell id="HttpApiIntegrationAddEvent|HttpApiRoutePostEvent" value="Target" style="edgeStyle=orthogonalEdgeStyle;rounded=1;orthogonalLoop=1;jettySize=auto;html=1;labelBackgroundColor=none;fontColor=#EA6B66;noEdgeStyle=1;orthogonal=1;" edge="1" parent="1" source="23" target="22"><mxGeometry relative="1" as="geometry"><Array as="points"><mxPoint x="64" y="225"/><mxPoint x="238" y="225"/></Array></mxGeometry></mxCell><mxCell id="HttpApiAuthorizerAuthorizerAdd|HttpApiRoutePostEvent" value="AuthorizerId" style="edgeStyle=orthogonalEdgeStyle;rounded=1;orthogonalLoop=1;jettySize=auto;html=1;labelBackgroundColor=none;fontColor=#EA6B66;noEdgeStyle=1;orthogonal=1;" edge="1" parent="1" source="23" target="18"><mxGeometry relative="1" as="geometry"><Array as="points"><mxPoint x="62" y="211.66666666666666"/><mxPoint x="238" y="25"/></Array></mxGeometry></mxCell><mxCell id="HttpApi|GetMetricsLambdaPermissionHttpApi" value="SourceArn" style="edgeStyle=orthogonalEdgeStyle;rounded=1;orthogonalLoop=1;jettySize=auto;html=1;labelBackgroundColor=none;fontColor=#EA6B66;noEdgeStyle=1;orthogonal=1;" edge="1" parent="1" source="24" target="15"><mxGeometry relative="1" as="geometry"><Array as="points"><mxPoint x="312" y="965"/><mxPoint x="484" y="616.0714285714284"/></Array></mxGeometry></mxCell><mxCell id="GetMetricsLambdaFunction|GetMetricsLambdaPermissionHttpApi" value="FunctionName" style="edgeStyle=orthogonalEdgeStyle;rounded=1;orthogonalLoop=1;jettySize=auto;html=1;labelBackgroundColor=none;fontColor=#EA6B66;noEdgeStyle=1;orthogonal=1;" edge="1" parent="1" source="24" target="13"><mxGeometry relative="1" as="geometry"><Array as="points"><mxPoint x="312" y="985"/><mxPoint x="488" y="810"/></Array></mxGeometry></mxCell><mxCell id="HttpApi|HttpApiIntegrationGetMetrics" value="ApiId" style="edgeStyle=orthogonalEdgeStyle;rounded=1;orthogonalLoop=1;jettySize=auto;html=1;labelBackgroundColor=none;fontColor=#EA6B66;noEdgeStyle=1;orthogonal=1;" edge="1" parent="1" source="25" target="15"><mxGeometry relative="1" as="geometry"><Array as="points"><mxPoint x="312" y="815"/><mxPoint x="480" y="608.9285714285713"/></Array></mxGeometry></mxCell><mxCell id="GetMetricsLambdaFunction|HttpApiIntegrationGetMetrics" value="IntegrationUri" style="edgeStyle=orthogonalEdgeStyle;rounded=1;orthogonalLoop=1;jettySize=auto;html=1;labelBackgroundColor=none;fontColor=#EA6B66;noEdgeStyle=1;orthogonal=1;" edge="1" parent="1" source="25" target="13"><mxGeometry relative="1" as="geometry"><Array as="points"><mxPoint x="312" y="835"/><mxPoint x="488" y="790"/></Array></mxGeometry></mxCell><mxCell id="HttpApi|HttpApiRouteGetMetrics" value="ApiId" style="edgeStyle=orthogonalEdgeStyle;rounded=1;orthogonalLoop=1;jettySize=auto;html=1;labelBackgroundColor=none;fontColor=#EA6B66;noEdgeStyle=1;orthogonal=1;" edge="1" parent="1" source="26" target="15"><mxGeometry relative="1" as="geometry"><Array as="points"><mxPoint x="62" y="586.6666666666666"/><mxPoint x="150" y="550"/><mxPoint x="400" y="550"/><mxPoint x="476" y="598.2142857142857"/></Array></mxGeometry></mxCell><mxCell id="HttpApiIntegrationGetMetrics|HttpApiRouteGetMetrics" value="Target" style="edgeStyle=orthogonalEdgeStyle;rounded=1;orthogonalLoop=1;jettySize=auto;html=1;labelBackgroundColor=none;fontColor=#EA6B66;noEdgeStyle=1;orthogonal=1;" edge="1" parent="1" source="26" target="25"><mxGeometry relative="1" as="geometry"><Array as="points"><mxPoint x="62" y="613.3333333333334"/><mxPoint x="238" y="825"/></Array></mxGeometry></mxCell><mxCell id="HttpApiAuthorizerAuthorizerGet|HttpApiRouteGetMetrics" value="AuthorizerId" style="edgeStyle=orthogonalEdgeStyle;rounded=1;orthogonalLoop=1;jettySize=auto;html=1;labelBackgroundColor=none;fontColor=#EA6B66;noEdgeStyle=1;orthogonal=1;" edge="1" parent="1" source="26" target="20"><mxGeometry relative="1" as="geometry"><Array as="points"><mxPoint x="64" y="600"/><mxPoint x="238" y="615"/></Array></mxGeometry></mxCell><mxCell id="HttpApi|GetLastDeploymentLambdaPermissionHttpApi" value="SourceArn" style="edgeStyle=orthogonalEdgeStyle;rounded=1;orthogonalLoop=1;jettySize=auto;html=1;labelBackgroundColor=none;fontColor=#EA6B66;noEdgeStyle=1;orthogonal=1;" edge="1" parent="1" source="27" target="15"><mxGeometry relative="1" as="geometry"><Array as="points"><mxPoint x="312" y="1165"/><mxPoint x="488" y="623.2142857142856"/></Array></mxGeometry></mxCell><mxCell id="GetLastDeploymentLambdaFunction|GetLastDeploymentLambdaPermissionHttpApi" value="FunctionName" style="edgeStyle=orthogonalEdgeStyle;rounded=1;orthogonalLoop=1;jettySize=auto;html=1;labelBackgroundColor=none;fontColor=#EA6B66;noEdgeStyle=1;orthogonal=1;" edge="1" parent="1" source="27" target="14"><mxGeometry relative="1" as="geometry"><Array as="points"><mxPoint x="312" y="1185"/><mxPoint x="488" y="959.21875"/></Array></mxGeometry></mxCell><mxCell id="HttpApi|HttpApiIntegrationGetLastDeployment" value="ApiId" style="edgeStyle=orthogonalEdgeStyle;rounded=1;orthogonalLoop=1;jettySize=auto;html=1;labelBackgroundColor=none;fontColor=#EA6B66;noEdgeStyle=1;orthogonal=1;" edge="1" parent="1" source="28" target="15"><mxGeometry relative="1" as="geometry"><Array as="points"><mxPoint x="312" y="1065"/><mxPoint x="486" y="619.642857142857"/></Array></mxGeometry></mxCell><mxCell id="GetLastDeploymentLambdaFunction|HttpApiIntegrationGetLastDeployment" value="IntegrationUri" style="edgeStyle=orthogonalEdgeStyle;rounded=1;orthogonalLoop=1;jettySize=auto;html=1;labelBackgroundColor=none;fontColor=#EA6B66;noEdgeStyle=1;orthogonal=1;" edge="1" parent="1" source="28" target="14"><mxGeometry relative="1" as="geometry"><Array as="points"><mxPoint x="312" y="1085"/><mxPoint x="488" y="939.21875"/></Array></mxGeometry></mxCell><mxCell id="HttpApi|HttpApiRouteGetLastdeployment" value="ApiId" style="edgeStyle=orthogonalEdgeStyle;rounded=1;orthogonalLoop=1;jettySize=auto;html=1;labelBackgroundColor=none;fontColor=#EA6B66;noEdgeStyle=1;orthogonal=1;" edge="1" parent="1" source="29" target="15"><mxGeometry relative="1" as="geometry"><Array as="points"><mxPoint x="64" y="900"/><mxPoint x="150" y="900"/><mxPoint x="400" y="900"/><mxPoint x="482" y="612.4999999999999"/></Array></mxGeometry></mxCell><mxCell id="HttpApiIntegrationGetLastDeployment|HttpApiRouteGetLastdeployment" value="Target" style="edgeStyle=orthogonalEdgeStyle;rounded=1;orthogonalLoop=1;jettySize=auto;html=1;labelBackgroundColor=none;fontColor=#EA6B66;noEdgeStyle=1;orthogonal=1;" edge="1" parent="1" source="29" target="28"><mxGeometry relative="1" as="geometry"><Array as="points"><mxPoint x="62" y="913.3333333333334"/><mxPoint x="238" y="1075"/></Array></mxGeometry></mxCell><mxCell id="HttpApiAuthorizerAuthorizerGet|HttpApiRouteGetLastdeployment" value="AuthorizerId" style="edgeStyle=orthogonalEdgeStyle;rounded=1;orthogonalLoop=1;jettySize=auto;html=1;labelBackgroundColor=none;fontColor=#EA6B66;noEdgeStyle=1;orthogonal=1;" edge="1" parent="1" source="29" target="20"><mxGeometry relative="1" as="geometry"><Array as="points"><mxPoint x="62" y="886.6666666666666"/><mxPoint x="238" y="635"/></Array></mxGeometry></mxCell></root></mxGraphModel>
            </diagram>
          </mxfile>